<?xml version="1.0" encoding="UTF-8"?>
<!DOCTYPE svg PUBLIC "-//W3C//DTD SVG 1.1//EN" "http://www.w3.org/Graphics/SVG/1.1/DTD/svg11.dtd">
<!-- Creator: CorelDRAW 2019 (64-Bit) -->
<svg xmlns="http://www.w3.org/2000/svg" xml:space="preserve" width="169.333mm" height="169.333mm" version="1.1" style="shape-rendering:geometricPrecision; text-rendering:geometricPrecision; image-rendering:optimizeQuality; fill-rule:evenodd; clip-rule:evenodd"
viewBox="0 0 16933.32 16933.32"
 xmlns:xlink="http://www.w3.org/1999/xlink"
 xmlns:xodm="http://www.corel.com/coreldraw/odm/2003">
 <defs>
  <style type="text/css">
   <![CDATA[
    .fil1 {fill:#1E7241}
    .fil0 {fill:#A8D0A8}
   ]]>
  </style>
 </defs>
 <g id="Слой_x0020_1">
  <metadata id="CorelCorpID_0Corel-Layer"/>
  <g id="_1281732746032">
   <path class="fil0" d="M5787.02 427.85l3.11 7041.91c-59.71,-50.5 -127.48,-144.6 -154.86,-193.94 -41.18,-74.21 -51.63,-122.87 -95.99,-188.95 -79.86,-119.01 -143.39,-227.64 -223.19,-356.51l-328.52 -539.73c-31.57,-66.45 -60.45,-134.51 -125.19,-171.82 -112.71,108.42 -510.95,804.14 -639.85,1017.38 -16.3,26.96 -19.56,42.15 -45.6,82.85l-63.01 93.2c-21.45,35.57 -27.19,48.37 -49.44,87.81 -17.69,31.35 -79.14,145.04 -111.76,167.68 -4.74,-668.21 -22.28,-6962.19 18.03,-7031.46 -10.77,-48.94 -3.74,-42.28 -22.3,-75.3 -422.43,0 -870.38,212.58 -1156.2,426.47 -179.95,134.67 -348.03,317.8 -480.67,500.13 -59.9,82.35 -69.56,99.25 -116.66,195.43 -116.08,237.14 -210.86,331.92 -252.96,727.84 -40.76,383.08 -21.99,851.8 -21.99,1270.89 0,3628.28 18.49,7300.24 -0.15,10922.81 -2.3,444.02 116.63,783.42 322.04,1126.87l207.44 282.95c538.07,578.77 966.37,752.27 1833.52,752.27l7712.75 0c456.03,0 2293.92,55.24 2541.61,-44.15 149.36,-59.92 247.99,-157.71 340.9,-283.27 117.53,-158.83 127.82,-256.96 126.85,-519.58 -1.05,-284.71 50.29,-576.3 -46.08,-756.51 -149.14,-278.92 -610.36,-229.09 -699.27,78.06 -64.72,223.66 58.37,400.69 -136.8,509.63 -160.34,89.52 -996.94,35.02 -1257.86,35.02l-8671.33 0.08c-98.81,0.47 -147.94,11.27 -233.61,-13.14 -305.69,-87.2 -375.04,-55.53 -663.7,-337.9 -112.16,-109.7 -192.73,-262.64 -227.19,-419.22 -68.48,-311.14 -45.05,-509.82 102.71,-786.66 373.57,-700.01 1276.41,-516.24 2069.55,-516.24l9006.14 0.53c158.66,0.76 231.14,-9.53 352.75,-73.12 39.78,-20.8 73.03,-38.01 108.71,-67.16 126.66,-103.44 223.37,-207.89 270.02,-376.54 64.63,-233.69 25.88,-957.43 25.88,-1266.99 0,-3432.85 0,-6865.7 0,-10298.52 0,-255.49 30.57,-493.65 -78.96,-701.22 -42.28,-80.12 -5.45,-27.41 -69.56,-86.49 -60.05,-55.34 -115.16,-124.4 -166.13,-168.24 -200.72,-172.66 -863.56,-114.03 -1178.84,-114.03 -2578.34,0 -5156.68,0 -7735.02,0l10.68 66.88z"/>
   <path class="fil1" d="M5787.02 427.85l-1816.27 8.42c-40.31,69.27 -22.77,6363.25 -18.03,7031.46 32.62,-22.64 94.07,-136.33 111.76,-167.68 22.25,-39.44 27.99,-52.24 49.44,-87.81l63.01 -93.2c26.04,-40.7 29.3,-55.89 45.6,-82.85 128.9,-213.24 527.14,-908.96 639.85,-1017.38 64.74,37.31 93.62,105.37 125.19,171.82l328.52 539.73c79.8,128.87 143.33,237.5 223.19,356.51 44.36,66.08 54.81,114.74 95.99,188.95 27.38,49.34 95.15,143.44 154.86,193.94l-3.11 -7041.91z"/>
  </g>
 </g>
</svg>
