<?xml version="1.0" encoding="UTF-8"?>
<!DOCTYPE svg PUBLIC "-//W3C//DTD SVG 1.1//EN" "http://www.w3.org/Graphics/SVG/1.1/DTD/svg11.dtd">
<!-- Creator: CorelDRAW 2019 (64-Bit) -->
<svg xmlns="http://www.w3.org/2000/svg" xml:space="preserve" width="169.333mm" height="169.333mm" version="1.1" style="shape-rendering:geometricPrecision; text-rendering:geometricPrecision; image-rendering:optimizeQuality; fill-rule:evenodd; clip-rule:evenodd"
viewBox="0 0 16933.32 16933.32"
 xmlns:xlink="http://www.w3.org/1999/xlink"
 xmlns:xodm="http://www.corel.com/coreldraw/odm/2003">
 <defs>
  <style type="text/css">
   <![CDATA[
    .fil0 {fill:#FEFEFE}
   ]]>
  </style>
 </defs>
 <g id="Слой_x0020_1">
  <metadata id="CorelCorpID_0Corel-Layer"/>
  <path class="fil0" d="M3899.74 415.49l0 0 0 7057.07 898.72 -1604.32 869.39 1594.48 0 -7047.23 8349.98 0c541.35,0 984.24,442.96 984.24,984.24l0 11751.96c0,314.95 -263.19,453.12 -472.42,452.75l-10551.26 -18.76c-1102.26,58.12 -1043.2,1947.88 157.59,1947.88 2604.56,0 7077.2,-39.22 9139.57,-78.35 1057.25,-20.07 880.38,-133.48 880.48,-278.02 -15.74,-627.66 787.01,-568.81 846.04,-6.91l0 363.31c0,541.35 -442.89,984.24 -984.24,984.24l-10118.09 0c-1082.69,0 -1968.49,-885.8 -1968.49,-1968.49l0 -12165.37c0,-1082.68 885.8,-1968.48 1968.49,-1968.48z"/>
 </g>
</svg>
